<svg width="20" height="20" viewBox="0 0 20 20" fill="none" xmlns="http://www.w3.org/2000/svg">
<path d="M2.64172 6.2002L10 10.4585L17.3084 6.22517" stroke="#007EA2" stroke-width="1.5" stroke-linecap="round" stroke-linejoin="round"/>
<path d="M10.0001 18.0085V10.4502" stroke="#007EA2" stroke-width="1.5" stroke-linecap="round" stroke-linejoin="round"/>
<path d="M8.27501 2.06699L3.82502 4.54202C2.81668 5.10035 1.9917 6.50034 1.9917 7.65034V12.3587C1.9917 13.5087 2.81668 14.9087 3.82502 15.467L8.27501 17.942C9.22501 18.467 10.7833 18.467 11.7333 17.942L16.1834 15.467C17.1917 14.9087 18.0167 13.5087 18.0167 12.3587V7.65034C18.0167 6.50034 17.1917 5.10035 16.1834 4.54202L11.7333 2.06699C10.775 1.53366 9.22501 1.53366 8.27501 2.06699Z" stroke="#007EA2" stroke-width="1.5" stroke-linecap="round" stroke-linejoin="round"/>
<path d="M14.1667 11.0337V7.98369L6.25836 3.41699" stroke="#007EA2" stroke-width="1.5" stroke-linecap="round" stroke-linejoin="round"/>
</svg>
