<svg width="262" height="150" viewBox="0 0 262 150" fill="none" xmlns="http://www.w3.org/2000/svg">
<path fill-rule="evenodd" clip-rule="evenodd" d="M66.3042 110.478H161.261C161.798 110.478 162.322 110.42 162.826 110.31C163.33 110.42 163.854 110.478 164.391 110.478H218.652C222.686 110.478 225.956 107.208 225.956 103.174C225.956 99.1396 222.686 95.8693 218.652 95.8693H212.391C208.357 95.8693 205.087 92.5991 205.087 88.565C205.087 84.5309 208.357 81.2606 212.391 81.2606H232.217C236.251 81.2606 239.522 77.9904 239.522 73.9563C239.522 69.9222 236.251 66.652 232.217 66.652H209.261C213.295 66.652 216.565 63.3817 216.565 59.3476C216.565 55.3135 213.295 52.0433 209.261 52.0433H142.478C146.512 52.0433 149.782 48.773 149.782 44.7389C149.782 40.7048 146.512 37.4346 142.478 37.4346H82.9999C78.9658 37.4346 75.6955 40.7048 75.6955 44.7389C75.6955 48.773 78.9658 52.0433 82.9999 52.0433H41.2607C37.2266 52.0433 33.9564 55.3135 33.9564 59.3476C33.9564 63.3817 37.2266 66.652 41.2607 66.652H67.3477C71.3818 66.652 74.652 69.9222 74.652 73.9563C74.652 77.9904 71.3818 81.2606 67.3477 81.2606H25.6085C21.5745 81.2606 18.3042 84.5309 18.3042 88.565C18.3042 92.5991 21.5745 95.8693 25.6085 95.8693H66.3042C62.2701 95.8693 58.9999 99.1396 58.9999 103.174C58.9999 107.208 62.2701 110.478 66.3042 110.478ZM236.391 110.478C240.425 110.478 243.695 107.208 243.695 103.174C243.695 99.1397 240.425 95.8694 236.391 95.8694C232.357 95.8694 229.086 99.1397 229.086 103.174C229.086 107.208 232.357 110.478 236.391 110.478Z" fill="#E9F8FF"/>
<path fill-rule="evenodd" clip-rule="evenodd" d="M118.601 87.8418C118.519 88.4191 118.477 89.009 118.477 89.6088C118.477 96.5244 124.083 102.131 130.999 102.131C137.914 102.131 143.521 96.5244 143.521 89.6088C143.521 89.009 143.479 88.4191 143.397 87.8418H173.782V115.696C173.782 117.425 172.38 118.826 170.651 118.826H91.3467C89.6179 118.826 88.2163 117.425 88.2163 115.696V87.8418H118.601Z" fill="#B5E8FF"/>
<path fill-rule="evenodd" clip-rule="evenodd" d="M144.564 87.5226C144.564 95.0145 138.491 101.088 130.999 101.088C123.507 101.088 117.434 95.0145 117.434 87.5226C117.434 87.2799 117.44 87.0387 117.453 86.7991H88.2163L98.1924 57.3023C98.6225 56.0307 99.8155 55.1748 101.158 55.1748H160.84C162.182 55.1748 163.375 56.0307 163.805 57.3023L173.782 86.7991H144.545C144.558 87.0387 144.564 87.2799 144.564 87.5226Z" fill="#B5E8FF"/>
<path fill-rule="evenodd" clip-rule="evenodd" d="M142.581 88.518C142.581 94.3072 137.396 100.044 131 100.044C124.605 100.044 119.42 94.3072 119.42 88.518C119.42 88.3304 119.426 87.1006 119.437 86.9154H97.6091L106.125 66.2094C106.492 65.2268 107.511 64.5654 108.657 64.5654H153.344C154.49 64.5654 155.508 65.2268 155.876 66.2094L164.392 86.9154H142.564C142.575 87.1006 142.581 88.3304 142.581 88.518Z" fill="#E9F8FF"/>
<path fill-rule="evenodd" clip-rule="evenodd" d="M89.5203 87.014V114.653C89.5203 115.662 90.3378 116.479 91.3464 116.479H170.651C171.659 116.479 172.477 115.662 172.477 114.653V87.014L162.569 57.7205C162.319 56.9788 161.623 56.4795 160.84 56.4795H101.157C100.374 56.4795 99.6785 56.9788 99.4276 57.7205L89.5203 87.014Z" stroke="#39AED8" stroke-width="4"/>
<path d="M102.826 86.4795C106.934 86.4795 111.367 86.4795 116.125 86.4795C118.083 86.4795 118.083 87.8554 118.083 88.5664C118.083 95.482 123.818 101.088 130.893 101.088C137.967 101.088 143.703 95.482 143.703 88.5664C143.703 87.8554 143.703 86.4795 145.66 86.4795H171.696M95.0769 86.4795H97.6087H95.0769Z" stroke="#39AED8" stroke-width="4" stroke-linecap="round" stroke-linejoin="round"/>
<path d="M157.192 31.4888L145.61 44.4834M130.061 26.999V44.4834V26.999ZM102.827 31.4888L114.409 44.4834L102.827 31.4888Z" stroke="#77D8FF" stroke-width="4" stroke-linecap="round" stroke-linejoin="round"/>
</svg>
